<svg version="1.2" baseProfile="tiny-ps" xmlns="http://www.w3.org/2000/svg" viewBox="0 0 186 37" width="186" height="37">
	<title>indir-svg</title>
	<defs>
		<linearGradient id="grd1" gradientUnits="userSpaceOnUse"  x1="16.08" y1="-16.52" x2="10.26" y2="20.44">
			<stop offset="0" stop-color="#0096d9"  />
			<stop offset="1" stop-color="#00c198"  />
		</linearGradient>
		<linearGradient id="grd2" gradientUnits="userSpaceOnUse"  x1="8.95" y1="13.48" x2="18.28" y2="32.02">
			<stop offset="0" stop-color="#002dd9"  />
			<stop offset="1" stop-color="#00b2ab"  />
		</linearGradient>
		<linearGradient id="grd3" gradientUnits="userSpaceOnUse"  x1="23.33" y1="-3.39" x2="5.66" y2="37.65">
			<stop offset="0" stop-color="#3482c0"  />
			<stop offset="0.45" stop-color="#96bede"  />
			<stop offset="0.83" stop-color="#e1edf6"  />
			<stop offset="1" stop-color="#ffffff"  />
		</linearGradient>
		<linearGradient id="grd4" gradientUnits="userSpaceOnUse"  x1="407.139" y1="46.865" x2="126.633" y2="797.613">
			<stop offset="0" stop-color="#3482c0"  />
			<stop offset="0.45" stop-color="#96bede"  />
			<stop offset="0.83" stop-color="#e1edf6"  />
			<stop offset="1" stop-color="#ffffff"  />
		</linearGradient>
		<linearGradient id="grd5" gradientUnits="userSpaceOnUse"  x1="25.15" y1="3.24" x2="10.14" y2="32.25">
			<stop offset="0" stop-color="#569fa1"  />
			<stop offset="0.36" stop-color="#97c4c5"  />
			<stop offset="0.8" stop-color="#e2eeef"  />
			<stop offset="1" stop-color="#ffffff"  />
		</linearGradient>
		<radialGradient id="grd6" gradientUnits="userSpaceOnUse"  cx="21.16" cy="32.05" r="27.25">
			<stop offset="0" stop-color="#ffff00"  />
			<stop offset="1" stop-color="#000000"  />
		</radialGradient>
	</defs>
	<style>
		tspan { white-space:pre }
		.shp0 { fill: url(#grd1) } 
		.shp1 { fill: url(#grd2) } 
		.shp2 { mix-blend-mode: multiply;fill: url(#grd3) } 
		.shp3 { mix-blend-mode: multiply;fill: url(#grd4) } 
		.shp4 { mix-blend-mode: multiply;fill: url(#grd5) } 
		.shp5 { mix-blend-mode: screen;fill: url(#grd6) } 
	</style>
	<g id="Layer">
		<g id="Layer">
			<path id="Layer" class="shp0" d="M19.8 0.53C16.45 -0.37 12.9 -0.13 9.7 1.2C6.49 2.53 3.82 4.88 2.09 7.89C0.36 10.89 -0.32 14.39 0.14 17.82C0.6 21.26 2.19 24.45 4.65 26.89L22.17 9.37C22.82 8.71 23.29 7.9 23.53 7C23.77 6.11 23.77 5.16 23.53 4.27C23.29 3.37 22.82 2.56 22.17 1.9C21.51 1.24 20.69 0.77 19.8 0.53L19.8 0.53Z" />
			<path id="XTAKİP  " fill="#29292c" aria-label="XTAKİP "  d="M59.51 28.59L55.85 23L50.39 31.26Q50.05 31.3 49.75 31.34Q49.45 31.34 49.14 31.34Q46.69 31.34 45.53 30.36Q44.37 29.37 44.37 27.9Q44.37 26.66 44.89 25.75Q45.45 24.81 46.44 23.56L50.95 17.8L44.11 8.12Q44.33 7.52 44.72 6.92Q45.1 6.32 45.66 5.85Q46.26 5.33 47.04 5.03Q47.81 4.68 48.76 4.68Q50 4.68 50.95 5.33Q51.9 5.93 52.89 7.44L56.24 12.6L61.23 5.11Q61.57 4.99 62.17 4.9Q62.78 4.77 63.42 4.77Q65.36 4.77 66.43 5.72Q67.55 6.66 67.55 8.04Q67.55 9.24 66.9 10.19Q66.3 11.13 65.23 12.47Q64.11 13.84 63.08 15.18Q62.04 16.51 60.93 17.84L68.06 27.9Q67.72 29.5 66.56 30.44Q65.44 31.34 63.51 31.34Q62.26 31.34 61.36 30.74Q60.5 30.1 59.51 28.59ZM86.79 10.4L86.79 10.4Q87.03 10.77 87.2 11.38Q87.41 11.99 87.41 12.71Q87.41 14 86.83 14.58Q86.28 15.16 85.33 15.16L81.49 15.16L81.49 30.97Q81.12 31.07 80.33 31.17Q79.55 31.27 78.74 31.27Q76.93 31.27 76.22 30.66Q75.54 30.05 75.54 28.45L75.54 15.16L70.41 15.16Q70.17 14.78 69.96 14.17Q69.79 13.56 69.79 12.84Q69.79 11.55 70.34 10.97Q70.92 10.4 71.87 10.4L86.79 10.4ZM101.04 29.06L100.43 26.72L94.27 26.72Q93.93 27.94 93.66 28.99Q93.42 30.05 93.19 30.97Q92.71 31.14 92.17 31.27Q91.66 31.37 90.91 31.37Q89.17 31.37 88.32 30.8Q87.51 30.18 87.51 29.13Q87.51 28.65 87.64 28.18Q87.78 27.7 87.95 27.06Q88.19 26.14 88.6 24.78Q89.04 23.38 89.55 21.82Q90.06 20.22 90.64 18.59Q91.21 16.92 91.72 15.46Q92.23 13.97 92.64 12.81Q93.08 11.62 93.32 11.01Q93.9 10.67 95.06 10.36Q96.25 10.06 97.44 10.06Q99.14 10.06 100.43 10.57Q101.75 11.04 102.13 12.13Q102.74 13.86 103.45 16.21Q104.17 18.56 104.88 21.07Q105.6 23.55 106.28 26Q106.96 28.42 107.47 30.29Q107.06 30.76 106.24 31.07Q105.43 31.34 104.3 31.34Q102.64 31.34 101.99 30.8Q101.35 30.25 101.04 29.06ZM97.61 15.39L97.4 15.39Q96.93 16.79 96.35 18.49Q95.77 20.19 95.23 22.13L99.44 22.13Q98.97 20.19 98.46 18.49Q97.98 16.75 97.61 15.39ZM121.13 29.03L116.2 23.28L116.2 30.97Q115.83 31.07 115.05 31.17Q114.27 31.27 113.45 31.27Q111.65 31.27 110.93 30.66Q110.25 30.05 110.25 28.45L110.25 10.33Q110.66 10.26 111.44 10.16Q112.23 10.02 113.01 10.02Q114.71 10.02 115.46 10.6Q116.2 11.18 116.2 12.84L116.2 18.35L123.28 10.19Q125.59 10.19 126.57 11.08Q127.59 11.93 127.59 13.12Q127.59 14 127.15 14.78Q126.71 15.56 125.72 16.55L121.47 20.8Q123.68 23.25 125.49 25.15Q127.29 27.06 128.38 28.25Q128.38 28.99 128.1 29.57Q127.83 30.15 127.36 30.56Q126.91 30.97 126.34 31.17Q125.76 31.37 125.11 31.37Q123.72 31.37 122.83 30.69Q121.95 29.98 121.13 29.03ZM134.36 31.27Q132.56 31.27 131.84 30.66Q131.16 30.05 131.16 28.45L131.16 10.33Q131.57 10.26 132.35 10.16Q133.14 10.02 133.92 10.02Q135.62 10.02 136.37 10.6Q137.11 11.18 137.11 12.84L137.11 30.97Q136.74 31.07 135.96 31.17Q135.18 31.27 134.36 31.27ZM137.01 5.16Q137.01 6.42 136.16 7.27Q135.35 8.12 133.95 8.12Q132.56 8.12 131.71 7.27Q130.89 6.42 130.89 5.16Q130.89 3.9 131.71 3.05Q132.56 2.2 133.95 2.2Q135.35 2.2 136.16 3.05Q137.01 3.9 137.01 5.16ZM149.46 24.61L147.48 24.61L147.48 30.97Q147.11 31.07 146.33 31.17Q145.55 31.27 144.73 31.27Q142.93 31.27 142.21 30.66Q141.53 30.05 141.53 28.45L141.53 12.33Q141.53 11.62 141.91 11.25Q142.32 10.84 143 10.6Q144.15 10.19 145.72 10.02Q147.31 9.82 148.61 9.82Q153.3 9.82 155.78 11.82Q158.26 13.83 158.26 17.26Q158.26 18.93 157.62 20.29Q157 21.62 155.85 22.6Q154.73 23.55 153.09 24.1Q151.46 24.61 149.46 24.61ZM147.45 19.95L149.08 19.95Q150.51 19.95 151.36 19.27Q152.21 18.56 152.21 17.26Q152.21 15.97 151.39 15.29Q150.61 14.58 149.08 14.58Q148.54 14.58 148.16 14.61Q147.82 14.61 147.45 14.68L147.45 19.95Z" />
			<path id="XTAKİP  " fill="#111112" aria-label="XTAKİP "  d="" />
			<path id="Layer" class="shp1" d="M6.65 36.09C10 36.99 13.55 36.76 16.76 35.43C19.96 34.1 22.64 31.75 24.37 28.74C26.1 25.73 26.79 22.24 26.32 18.8C25.86 15.36 24.27 12.17 21.81 9.73L4.29 27.25C3.63 27.9 3.16 28.72 2.92 29.62C2.68 30.51 2.68 31.46 2.92 32.35C3.15 33.25 3.63 34.07 4.28 34.72C4.94 35.38 5.75 35.85 6.65 36.09L6.65 36.09Z" />
			<path id="Layer" class="shp2" d="M21.81 9.73L4.29 27.25C3.63 27.9 3.16 28.72 2.92 29.62C2.68 30.51 2.68 31.46 2.92 32.35C3.15 33.25 3.63 34.07 4.28 34.72C4.94 35.38 5.75 35.85 6.65 36.09C7.12 36.21 7.59 36.32 8.07 36.4C8.54 36.48 9.02 36.54 9.5 36.58C9.99 36.61 10.47 36.63 10.95 36.62C11.44 36.61 11.92 36.58 12.4 36.53C4.72 29.14 21.81 9.73 21.81 9.73L21.81 9.73Z" />
			<g id="Layer">
				<path id="Layer" class="shp3" d="M6.33 36C3.84 28.3 18.78 12.79 21.42 10.13L4.29 27.25C3.65 27.88 3.19 28.67 2.94 29.54C2.69 30.4 2.67 31.32 2.87 32.19C3.07 33.07 3.5 33.88 4.11 34.55C4.71 35.21 5.48 35.71 6.33 36Z" />
				<path id="Layer" class="shp4" d="M21.75 9.79L21.81 9.73L21.75 9.79Z" />
			</g>
			<path id="Layer" class="shp5" d="M23.45 7.29L4.64 26.88L22.17 9.37C22.32 9.23 22.45 9.07 22.58 8.91C22.71 8.75 22.83 8.58 22.94 8.41C23.04 8.23 23.14 8.05 23.23 7.86C23.31 7.68 23.39 7.49 23.45 7.29L23.45 7.29Z" />
		</g>
	</g>
</svg>